<svg xmlns="http://www.w3.org/2000/svg" xmlns:xlink="http://www.w3.org/1999/xlink" width="1866" zoomAndPan="magnify" viewBox="0 0 1399.5 647.24998" height="863" preserveAspectRatio="xMidYMid meet" version="1.0"><defs><g/><clipPath id="4b427e47f2"><path d="M 0.558594 0 L 1398.441406 0 L 1398.441406 646.5 L 0.558594 646.5 Z M 0.558594 0 " clip-rule="nonzero"/></clipPath><clipPath id="36219cb6e9"><path d="M 1190 114 L 1398.390625 114 L 1398.390625 424 L 1190 424 Z M 1190 114 " clip-rule="nonzero"/></clipPath><clipPath id="ceb431549b"><path d="M 0.609375 31 L 155 31 L 155 424 L 0.609375 424 Z M 0.609375 31 " clip-rule="nonzero"/></clipPath><clipPath id="6321064070"><path d="M 0.609375 0 L 84 0 L 84 83 L 0.609375 83 Z M 0.609375 0 " clip-rule="nonzero"/></clipPath></defs><g clip-path="url(#4b427e47f2)"><path fill="#ffffff" d="M 0.558594 0 L 1398.441406 0 L 1398.441406 646.5 L 0.558594 646.5 Z M 0.558594 0 " fill-opacity="1" fill-rule="nonzero"/><path fill="#ffffff" d="M 0.558594 0 L 1398.441406 0 L 1398.441406 646.5 L 0.558594 646.5 Z M 0.558594 0 " fill-opacity="1" fill-rule="nonzero"/></g><path fill="#2d2d2b" d="M 474.753906 235.648438 L 474.753906 413.679688 C 474.753906 419.222656 470.257812 423.71875 464.714844 423.71875 L 400.5 423.71875 C 394.957031 423.71875 390.460938 419.222656 390.460938 413.679688 L 390.460938 401.089844 C 367.15625 423.117188 338.835938 431.285156 303.617188 431.285156 C 235.058594 431.285156 196.695312 397.941406 196.695312 331.855469 L 196.695312 330.65625 C 196.695312 264.570312 231.914062 237.523438 335.089844 237.523438 L 337.5625 237.523438 C 352.023438 237.523438 364.835938 238.046875 376.972656 239.097656 C 378.769531 239.246094 380.34375 237.671875 380.269531 235.875 C 378.621094 201.257812 370.003906 194.738281 321.902344 194.738281 C 296.050781 194.738281 266.527344 197.210938 238.207031 201.632812 L 236.332031 201.632812 C 230.039062 201.632812 226.890625 198.484375 226.890625 191.589844 L 226.890625 138.09375 C 226.890625 128.652344 229.363281 126.179688 236.332031 124.304688 C 245.773438 122.355469 260.835938 119.882812 282.265625 117.335938 C 303.617188 115.464844 323.101562 114.191406 341.382812 114.191406 C 433.84375 114.191406 474.753906 149.40625 474.753906 235.648438 Z M 287.285156 328.109375 C 287.285156 350.738281 300.472656 362.050781 326.246094 362.050781 C 342.355469 362.050781 357.941406 358.15625 373.902344 350.8125 C 377.871094 348.941406 380.34375 344.820312 380.34375 340.398438 L 380.34375 300.460938 C 380.34375 298.289062 378.621094 296.492188 376.523438 296.339844 C 364.308594 295.292969 353.59375 294.765625 343.929688 294.765625 L 341.382812 294.765625 C 301.144531 294.765625 287.285156 302.335938 287.285156 326.835938 Z M 287.285156 328.109375 " fill-opacity="1" fill-rule="evenodd"/><path fill="#2d2d2b" d="M 538.890625 10.714844 C 538.890625 3.746094 543.914062 0 549.605469 0 L 622.585938 0 C 629.480469 0 633.226562 3.746094 633.226562 10.714844 L 633.226562 83.695312 C 633.226562 89.3125 629.480469 94.335938 622.585938 94.335938 L 549.605469 94.335938 C 543.914062 94.335938 538.890625 89.3125 538.890625 83.695312 Z M 548.332031 423.71875 C 542.636719 423.71875 538.890625 419.972656 538.890625 414.277344 L 538.890625 131.796875 C 538.890625 124.90625 542.039062 121.757812 548.933594 121.757812 L 623.1875 121.757812 C 630.078125 121.757812 633.226562 124.90625 633.226562 131.796875 L 633.226562 414.277344 C 633.226562 419.972656 629.480469 423.71875 623.785156 423.71875 Z M 548.332031 423.71875 " fill-opacity="1" fill-rule="nonzero"/><path fill="#2d2d2b" d="M 708.078125 423.71875 C 702.460938 423.71875 698.714844 419.972656 698.714844 414.277344 L 698.714844 10.117188 C 698.714844 3.148438 701.859375 0 708.753906 0 L 783.007812 0 C 789.902344 0 793.046875 3.148438 793.046875 10.117188 L 793.046875 414.277344 C 793.046875 419.972656 789.300781 423.71875 783.605469 423.71875 Z M 708.078125 423.71875 " fill-opacity="1" fill-rule="nonzero"/><path fill="#2d2d2b" d="M 844 272.738281 C 844 162.667969 886.183594 114.191406 991.832031 114.191406 C 1097.554688 114.191406 1139.664062 162.667969 1139.664062 272.738281 C 1139.664062 382.808594 1097.554688 431.285156 991.832031 431.285156 C 886.183594 431.285156 844 382.808594 844 272.738281 Z M 1044.054688 272.738281 C 1044.054688 214.894531 1030.195312 197.210938 991.832031 197.210938 C 953.46875 197.210938 939.605469 214.894531 939.605469 272.738281 C 939.605469 330.65625 953.46875 348.265625 991.832031 348.265625 C 1030.195312 348.265625 1044.054688 330.65625 1044.054688 272.738281 Z M 1044.054688 272.738281 " fill-opacity="1" fill-rule="evenodd"/><g clip-path="url(#36219cb6e9)"><path fill="#2d2d2b" d="M 1398.390625 124.304688 L 1398.390625 184.023438 C 1398.390625 193.464844 1395.84375 196.613281 1388.351562 196.613281 L 1387.675781 196.613281 C 1359.804688 196.613281 1318.066406 208.601562 1294.015625 222.011719 C 1287.945312 225.382812 1284.351562 231.976562 1284.351562 238.871094 L 1284.351562 414.277344 C 1284.351562 419.523438 1280.15625 423.71875 1274.910156 423.71875 L 1199.457031 423.71875 C 1194.210938 423.71875 1190.015625 419.523438 1190.015625 414.277344 L 1190.015625 131.796875 C 1190.015625 126.253906 1194.511719 121.757812 1200.054688 121.757812 L 1265.46875 121.757812 C 1271.011719 121.757812 1275.582031 126.253906 1275.582031 131.796875 L 1275.582031 150.082031 C 1300.683594 124.304688 1357.480469 114.191406 1383.332031 114.191406 C 1395.84375 114.191406 1398.390625 116.738281 1398.390625 124.304688 Z M 1398.390625 124.304688 " fill-opacity="1" fill-rule="nonzero"/></g><g clip-path="url(#ceb431549b)"><path fill="#2d2d2b" d="M 1.359375 113.816406 L 82.804688 31.996094 C 84.453125 30.421875 87.226562 31.542969 87.226562 33.867188 L 87.226562 109.171875 C 87.226562 112.167969 89.625 114.566406 92.621094 114.566406 L 147.617188 114.566406 C 151.214844 114.566406 154.136719 117.488281 154.136719 121.007812 L 154.136719 194.289062 C 154.136719 197.886719 151.214844 200.808594 147.617188 200.808594 L 92.621094 200.808594 C 89.625 200.808594 87.226562 203.207031 87.226562 206.203125 L 87.226562 297.164062 C 87.226562 325.863281 98.539062 337.175781 125.441406 337.175781 L 147.617188 337.175781 C 151.214844 337.175781 154.136719 340.097656 154.136719 343.695312 L 154.136719 416.898438 C 154.136719 420.496094 151.214844 423.417969 147.617188 423.417969 L 104.535156 423.417969 C 35.25 423.417969 0.609375 387.578125 0.609375 315.898438 L 0.609375 115.613281 C 0.609375 114.941406 0.835938 114.265625 1.359375 113.816406 Z M 1.359375 113.816406 " fill-opacity="1" fill-rule="nonzero"/></g><g clip-path="url(#6321064070)"><path fill="#001576" d="M 3.457031 0 L 80.183594 0 C 82.804688 0 84.078125 3.148438 82.28125 4.945312 L 5.554688 81.671875 C 3.683594 83.46875 0.609375 82.195312 0.609375 79.648438 L 0.609375 2.921875 C 0.609375 1.273438 1.882812 0 3.457031 0 Z M 3.457031 0 " fill-opacity="1" fill-rule="nonzero"/></g><g fill="#001576" fill-opacity="1"><g transform="translate(619.72197, 604.307239)"><g><path d="M 45.546875 2.25 C 32.046875 2.25 22.265625 -1.648438 16.203125 -9.453125 C 10.148438 -17.265625 7.125 -29.734375 7.125 -46.859375 C 7.125 -64.222656 10.242188 -76.742188 16.484375 -84.421875 C 22.734375 -92.109375 32.921875 -95.953125 47.046875 -95.953125 C 50.671875 -95.953125 54.664062 -95.640625 59.03125 -95.015625 C 63.40625 -94.390625 69.28125 -93.332031 76.65625 -91.84375 L 75.90625 -71.96875 C 65.28125 -72.96875 57.910156 -73.46875 53.796875 -73.46875 C 48.046875 -73.46875 43.671875 -72.6875 40.671875 -71.125 C 37.671875 -69.5625 35.578125 -66.90625 34.390625 -63.15625 C 33.203125 -59.40625 32.609375 -54.035156 32.609375 -47.046875 C 32.609375 -39.921875 33.203125 -34.484375 34.390625 -30.734375 C 35.578125 -26.984375 37.703125 -24.296875 40.765625 -22.671875 C 43.828125 -21.046875 48.296875 -20.234375 54.171875 -20.234375 L 75.90625 -21.734375 L 76.65625 -1.6875 C 63.40625 0.9375 53.035156 2.25 45.546875 2.25 Z M 45.546875 2.25 "/></g></g></g><g fill="#001576" fill-opacity="1"><g transform="translate(703.308511, 604.307239)"><g><path d="M 49.859375 2.25 C 35.734375 2.25 25.015625 -2.023438 17.703125 -10.578125 C 10.398438 -19.140625 6.75 -31.296875 6.75 -47.046875 C 6.75 -62.660156 10.398438 -74.710938 17.703125 -83.203125 C 25.015625 -91.703125 35.734375 -95.953125 49.859375 -95.953125 C 63.972656 -95.953125 74.6875 -91.703125 82 -83.203125 C 89.3125 -74.710938 92.96875 -62.660156 92.96875 -47.046875 C 92.96875 -31.296875 89.3125 -19.140625 82 -10.578125 C 74.6875 -2.023438 63.972656 2.25 49.859375 2.25 Z M 49.859375 -19.109375 C 55.847656 -19.109375 60.28125 -21.296875 63.15625 -25.671875 C 66.03125 -30.046875 67.46875 -37.171875 67.46875 -47.046875 C 67.46875 -56.910156 66.03125 -63.96875 63.15625 -68.21875 C 60.28125 -72.46875 55.847656 -74.59375 49.859375 -74.59375 C 43.859375 -74.59375 39.421875 -72.46875 36.546875 -68.21875 C 33.671875 -63.96875 32.234375 -56.910156 32.234375 -47.046875 C 32.234375 -37.171875 33.671875 -30.046875 36.546875 -25.671875 C 39.421875 -21.296875 43.859375 -19.109375 49.859375 -19.109375 Z M 49.859375 -19.109375 "/></g></g></g><g fill="#001576" fill-opacity="1"><g transform="translate(803.012639, 604.307239)"><g><path d="M 11.625 -93.703125 L 36.546875 -93.703125 L 36.546875 -83.78125 C 47.296875 -90.03125 57.289062 -94.085938 66.53125 -95.953125 L 66.53125 -70.65625 C 57.164062 -68.78125 48.484375 -66.59375 40.484375 -64.09375 L 36.734375 -62.78125 L 36.734375 0 L 11.625 0 Z M 11.625 -93.703125 "/></g></g></g><g fill="#001576" fill-opacity="1"><g transform="translate(872.730569, 604.307239)"><g><path d="M 11.625 -93.703125 L 36.546875 -93.703125 L 36.546875 -88.65625 C 41.421875 -91.53125 45.515625 -93.460938 48.828125 -94.453125 C 52.140625 -95.453125 55.664062 -95.953125 59.40625 -95.953125 C 71.40625 -95.953125 80.304688 -91.984375 86.109375 -84.046875 C 91.921875 -76.117188 94.828125 -63.472656 94.828125 -46.109375 C 94.828125 -34.109375 93.390625 -24.609375 90.515625 -17.609375 C 87.648438 -10.617188 83.15625 -5.5625 77.03125 -2.4375 C 70.90625 0.6875 62.785156 2.25 52.671875 2.25 C 47.671875 2.25 42.359375 1.75 36.734375 0.75 L 36.734375 39.359375 L 11.625 39.359375 Z M 50.234375 -19.484375 C 57.222656 -19.484375 62.15625 -21.515625 65.03125 -25.578125 C 67.90625 -29.640625 69.34375 -36.484375 69.34375 -46.109375 C 69.34375 -55.597656 68.03125 -62.53125 65.40625 -66.90625 C 62.78125 -71.28125 58.472656 -73.46875 52.484375 -73.46875 C 48.109375 -73.46875 43.609375 -72.53125 38.984375 -70.65625 L 36.734375 -69.71875 L 36.734375 -20.609375 C 42.359375 -19.859375 46.859375 -19.484375 50.234375 -19.484375 Z M 50.234375 -19.484375 "/></g></g></g><g fill="#001576" fill-opacity="1"><g transform="translate(974.683689, 604.307239)"><g><path d="M 49.859375 2.25 C 35.734375 2.25 25.015625 -2.023438 17.703125 -10.578125 C 10.398438 -19.140625 6.75 -31.296875 6.75 -47.046875 C 6.75 -62.660156 10.398438 -74.710938 17.703125 -83.203125 C 25.015625 -91.703125 35.734375 -95.953125 49.859375 -95.953125 C 63.972656 -95.953125 74.6875 -91.703125 82 -83.203125 C 89.3125 -74.710938 92.96875 -62.660156 92.96875 -47.046875 C 92.96875 -31.296875 89.3125 -19.140625 82 -10.578125 C 74.6875 -2.023438 63.972656 2.25 49.859375 2.25 Z M 49.859375 -19.109375 C 55.847656 -19.109375 60.28125 -21.296875 63.15625 -25.671875 C 66.03125 -30.046875 67.46875 -37.171875 67.46875 -47.046875 C 67.46875 -56.910156 66.03125 -63.96875 63.15625 -68.21875 C 60.28125 -72.46875 55.847656 -74.59375 49.859375 -74.59375 C 43.859375 -74.59375 39.421875 -72.46875 36.546875 -68.21875 C 33.671875 -63.96875 32.234375 -56.910156 32.234375 -47.046875 C 32.234375 -37.171875 33.671875 -30.046875 36.546875 -25.671875 C 39.421875 -21.296875 43.859375 -19.109375 49.859375 -19.109375 Z M 49.859375 -19.109375 "/></g></g></g><g fill="#001576" fill-opacity="1"><g transform="translate(1074.387833, 604.307239)"><g><path d="M 11.625 -93.703125 L 36.546875 -93.703125 L 36.546875 -83.78125 C 47.296875 -90.03125 57.289062 -94.085938 66.53125 -95.953125 L 66.53125 -70.65625 C 57.164062 -68.78125 48.484375 -66.59375 40.484375 -64.09375 L 36.734375 -62.78125 L 36.734375 0 L 11.625 0 Z M 11.625 -93.703125 "/></g></g></g><g fill="#001576" fill-opacity="1"><g transform="translate(1144.105763, 604.307239)"><g><path d="M 34.484375 2.25 C 15.117188 2.25 5.4375 -7.992188 5.4375 -28.484375 C 5.4375 -38.234375 8.023438 -45.265625 13.203125 -49.578125 C 18.390625 -53.890625 26.734375 -56.414062 38.234375 -57.15625 L 58.28125 -58.65625 L 58.28125 -64.46875 C 58.28125 -68.21875 57.4375 -70.84375 55.75 -72.34375 C 54.070312 -73.84375 51.234375 -74.59375 47.234375 -74.59375 C 43.109375 -74.59375 37.421875 -74.4375 30.171875 -74.125 C 22.921875 -73.8125 16.863281 -73.46875 12 -73.09375 L 11.25 -90.53125 C 24.738281 -94.144531 37.484375 -95.953125 49.484375 -95.953125 C 61.472656 -95.953125 70.125 -93.453125 75.4375 -88.453125 C 80.75 -83.460938 83.40625 -75.46875 83.40625 -64.46875 L 83.40625 -25.484375 C 83.65625 -22.359375 84.1875 -20.234375 85 -19.109375 C 85.8125 -17.992188 87.34375 -17.1875 89.59375 -16.6875 L 88.84375 2.25 C 82.34375 2.25 77.1875 1.8125 73.375 0.9375 C 69.5625 0.0625 65.78125 -1.6875 62.03125 -4.3125 C 52.914062 0.0625 43.734375 2.25 34.484375 2.25 Z M 39.921875 -18.1875 C 44.671875 -18.1875 49.859375 -18.929688 55.484375 -20.421875 L 58.28125 -21.171875 L 58.28125 -41.234375 L 41.234375 -39.734375 C 34.234375 -39.109375 30.734375 -35.359375 30.734375 -28.484375 C 30.734375 -21.617188 33.796875 -18.1875 39.921875 -18.1875 Z M 39.921875 -18.1875 "/></g></g></g><g fill="#001576" fill-opacity="1"><g transform="translate(1239.874226, 604.307239)"><g><path d="M 43.484375 2.25 C 36.234375 2.25 30.609375 1.125 26.609375 -1.125 C 22.609375 -3.375 19.734375 -7.054688 17.984375 -12.171875 C 16.242188 -17.296875 15.375 -24.359375 15.375 -33.359375 L 15.375 -72.34375 L 4.3125 -72.34375 L 4.3125 -93.703125 L 15.375 -93.703125 L 15.375 -119.765625 L 40.484375 -119.765625 L 40.484375 -93.703125 L 63.53125 -93.703125 L 63.53125 -72.34375 L 40.484375 -72.34375 L 40.484375 -33.921875 C 40.484375 -29.046875 40.921875 -25.515625 41.796875 -23.328125 C 42.671875 -21.140625 44.859375 -20.109375 48.359375 -20.234375 L 62.59375 -20.609375 L 63.71875 -0.5625 C 58.71875 0.5625 54.8125 1.3125 52 1.6875 C 49.195312 2.0625 46.359375 2.25 43.484375 2.25 Z M 43.484375 2.25 "/></g></g></g><g fill="#001576" fill-opacity="1"><g transform="translate(1308.092861, 604.307239)"><g><path d="M 48.359375 2.25 C 33.734375 2.25 23.171875 -1.429688 16.671875 -8.796875 C 10.179688 -16.171875 6.9375 -28.109375 6.9375 -44.609375 C 6.9375 -61.847656 10.335938 -74.710938 17.140625 -83.203125 C 23.953125 -91.703125 34.546875 -95.953125 48.921875 -95.953125 C 62.160156 -95.953125 72.1875 -92.421875 79 -85.359375 C 85.8125 -78.304688 89.21875 -67.722656 89.21875 -53.609375 L 87.34375 -36.171875 L 32.234375 -36.171875 C 32.484375 -31.796875 33.265625 -28.453125 34.578125 -26.140625 C 35.890625 -23.828125 38.015625 -22.203125 40.953125 -21.265625 C 43.890625 -20.328125 47.984375 -19.859375 53.234375 -19.859375 C 57.347656 -19.859375 62.28125 -19.984375 68.03125 -20.234375 C 73.78125 -20.484375 77.96875 -20.734375 80.59375 -20.984375 L 85.84375 -21.546875 L 86.21875 -3 C 72.09375 0.5 59.472656 2.25 48.359375 2.25 Z M 64.46875 -55.296875 C 64.46875 -62.785156 63.3125 -68 61 -70.9375 C 58.6875 -73.875 54.597656 -75.34375 48.734375 -75.34375 C 42.734375 -75.34375 38.484375 -73.8125 35.984375 -70.75 C 33.484375 -67.6875 32.171875 -62.535156 32.046875 -55.296875 Z M 64.46875 -55.296875 "/></g></g></g></svg>